<svg preserveAspectRatio="none" width="100%" height="100%" overflow="visible" style="display: block;" viewBox="0 0 73 73" fill="none" xmlns="http://www.w3.org/2000/svg">
<g id="Avatars">
<path id="Vector" d="M36.046 72.092C55.9536 72.092 72.092 55.9536 72.092 36.046C72.092 16.1383 55.9536 0 36.046 0C16.1383 0 0 16.1383 0 36.046C0 55.9536 16.1383 72.092 36.046 72.092Z" fill="var(--fill-0, #FFF1EB)"/>
<path id="Vector_2" d="M13.5652 21.0803C13.5652 33.6246 23.7343 43.7937 36.2785 43.7937C48.8228 43.7937 58.9919 33.6246 58.9919 21.0803" stroke="var(--stroke-0, #FA463C)" stroke-width="8.96317" stroke-miterlimit="10"/>
<path id="Vector_3" d="M60.48 62.5397C53.8322 57.0779 45.3226 53.799 36.0473 53.799C26.7711 53.799 18.2609 57.0785 11.6128 62.5413C11.6128 62.5413 20.3393 72.092 36.0473 72.092C51.7554 72.092 60.48 62.5397 60.48 62.5397Z" fill="var(--fill-0, #BC133C)"/>
</g>
</svg>
