<svg preserveAspectRatio="none" width="100%" height="100%" overflow="visible" style="display: block;" viewBox="0 0 87 87" fill="none" xmlns="http://www.w3.org/2000/svg">
<g id="auto_stories_24dp_FILL0_wght400_GRAD0_opsz20 1">
<path id="Vector" d="M43.2009 73.4398C40.3209 71.5198 37.2399 69.9598 33.9579 68.7598C30.6759 67.5598 27.2769 66.9598 23.7609 66.9598C21.4809 66.9598 19.2009 67.1848 16.9209 67.6348C14.6409 68.0848 12.4509 68.7598 10.3509 69.6598C8.9109 70.2598 7.5459 70.1539 6.2559 69.3421C4.9659 68.5303 4.3209 67.3462 4.3209 65.7898V20.5198C4.3209 19.6798 4.5459 18.8998 4.9959 18.1798C5.4459 17.4598 6.0609 16.9198 6.8409 16.5598C9.4617 15.3598 12.1962 14.4598 15.0444 13.8598C17.8932 13.2598 20.7987 12.9598 23.7609 12.9598C27.1995 12.9598 30.5643 13.3648 33.8553 14.1748C37.1457 14.9848 40.2609 16.1998 43.2009 17.8198V65.8798C46.2609 64.2598 49.4109 62.9548 52.6509 61.9648C55.8909 60.9748 59.2209 60.4798 62.6409 60.4798C64.8831 60.4798 67.0788 60.6748 69.228 61.0648C71.3766 61.4548 73.5009 61.9798 75.6009 62.6398V15.1198C76.2609 15.3598 76.9248 15.5839 77.5926 15.7921C78.2604 16.0009 78.9165 16.2568 79.5609 16.5598C80.3409 16.9798 80.9559 17.5348 81.4059 18.2248C81.8559 18.9148 82.0809 19.6798 82.0809 20.5198V65.7898C82.0809 67.2898 81.4359 68.4598 80.1459 69.2998C78.8559 70.1398 77.4909 70.2598 76.0509 69.6598C73.8909 68.8198 71.6859 68.1598 69.4359 67.6798C67.1859 67.1998 64.9209 66.9598 62.6409 66.9598C59.1249 66.9598 55.7259 67.5598 52.4439 68.7598C49.1619 69.9598 46.0809 71.5198 43.2009 73.4398ZM49.6809 56.1598V21.5998L69.1209 4.31978V38.8798L49.6809 56.1598ZM36.7209 62.2798V22.5898C34.6809 21.4498 32.5359 20.6398 30.2859 20.1598C28.0359 19.6798 25.7409 19.4398 23.4009 19.4398C21.2409 19.4398 19.1007 19.675 16.9803 20.1454C14.8599 20.6158 12.8001 21.3214 10.8009 22.2622V62.2798C12.8409 61.6198 14.9259 61.1548 17.0559 60.8848C19.1859 60.6148 21.3009 60.4798 23.4009 60.4798C25.7049 60.4798 27.9609 60.6148 30.1689 60.8848C32.3769 61.1548 34.5609 61.6198 36.7209 62.2798Z" fill="var(--fill-0, #1041A2)"/>
</g>
</svg>
