<svg preserveAspectRatio="none" width="100%" height="100%" overflow="visible" style="display: block;" viewBox="0 0 73 73" fill="none" xmlns="http://www.w3.org/2000/svg">
<g id="Avatars">
<path id="Vector" d="M36.046 72.092C55.9537 72.092 72.092 55.9536 72.092 36.046C72.092 16.1383 55.9537 0 36.046 0C16.1384 0 0 16.1383 0 36.046C0 55.9536 16.1384 72.092 36.046 72.092Z" fill="var(--fill-0, #FFF1EB)"/>
<path id="Vector_2" d="M47.4026 45.3245C47.4026 32.7802 37.2334 22.6111 24.6892 22.6111" stroke="var(--stroke-0, #FA463C)" stroke-width="8.96317" stroke-miterlimit="10"/>
<path id="Vector_3" d="M60.4793 62.5395C53.8314 57.0777 45.3219 53.7988 36.0466 53.7988C26.7704 53.7988 18.2602 57.0783 11.6121 62.5411C11.6121 62.5411 20.3385 72.0919 36.0466 72.0919C51.7547 72.0919 60.4793 62.5395 60.4793 62.5395Z" fill="var(--fill-0, #BC133C)"/>
</g>
</svg>
