<svg preserveAspectRatio="none" width="100%" height="100%" overflow="visible" style="display: block;" viewBox="0 0 231 231" fill="none" xmlns="http://www.w3.org/2000/svg">
<g id="Group 41508">
<g id="Group" opacity="0.5">
<circle id="Oval" cx="115.5" cy="115.5" r="115.5" fill="url(#paint0_linear_8663_2149)"/>
</g>
<circle id="Oval_2" cx="115.721" cy="114.762" r="113.058" fill="var(--fill-0, #F5F5F5)"/>
<path id="Path" d="M115.821 228.27C137.91 228.304 159.522 221.836 177.961 209.672C173.795 186.909 157.939 185.604 157.939 185.604H70.4838C70.4838 185.604 55.5343 186.83 50.8501 207.779C69.8699 221.157 92.567 228.316 115.821 228.27V228.27Z" fill="var(--fill-0, #00829A)"/>
<ellipse id="Oval_3" cx="114.621" cy="112.381" rx="54.5757" ry="54.5757" fill="var(--fill-0, #333333)"/>
<path id="Path_2" opacity="0.1" d="M97.0117 157.837H131.984V185.813C131.984 195.467 124.157 203.294 114.503 203.294V203.294C109.866 203.294 105.42 201.452 102.142 198.174C98.8634 194.895 97.0217 190.449 97.0217 185.813V157.837H97.0117Z" fill="var(--fill-0, black)"/>
<path id="Path_3" d="M100.35 156.542H128.645C130.489 156.542 131.984 158.037 131.984 159.881V184.537C131.984 194.192 124.157 202.018 114.503 202.018V202.018C109.865 202.021 105.416 200.18 102.135 196.902C98.8548 193.623 97.0117 189.175 97.0117 184.537V159.871C97.0117 158.027 98.5065 156.532 100.35 156.532V156.542Z" fill="var(--fill-0, #FDB797)"/>
<path id="Path_4" opacity="0.1" d="M97.0806 171.042C108.351 175.255 120.758 175.29 132.052 171.142V166.817H97.0806V171.042Z" fill="var(--fill-0, black)"/>
<circle id="Oval_4" cx="114.624" cy="123.263" r="50.1208" fill="var(--fill-0, #FDB797)"/>
<path id="Path_5" opacity="0.1" d="M78.9355 77.668C78.9355 77.668 100.054 120.523 159.663 95.6074L145.79 73.8509L121.203 65.0207L78.9355 77.668Z" fill="var(--fill-0, black)"/>
<path id="Path_6" d="M78.9355 77.0402C78.9355 77.0402 100.054 119.896 159.663 94.9796L145.79 73.2231L121.203 64.3929L78.9355 77.0402Z" fill="var(--fill-0, #333333)"/>
<path id="Path_7" d="M78.7455 74.1296C80.1693 69.7214 82.6301 65.7191 85.9213 62.459C95.778 52.7119 111.943 50.6589 120.235 39.5364C121.146 41.1283 121.341 43.0313 120.772 44.7747C120.202 46.5181 118.921 47.9389 117.245 48.6855C125.219 48.6357 134.398 47.9381 138.882 41.4001C141.148 46.6735 140.174 52.78 136.381 57.0872C143.417 57.4061 150.932 62.18 151.39 69.2162C151.689 73.9004 148.759 78.3354 144.902 81.0263C141.045 83.7172 136.391 84.9431 131.806 85.9597C118.431 88.9296 70.015 101.298 78.7455 74.1296Z" fill="var(--fill-0, #333333)"/>
<ellipse id="Oval_5" cx="64.4836" cy="123.214" rx="4.66425" ry="8.74049" fill="var(--fill-0, #FDB797)"/>
<ellipse id="Oval_6" cx="164.732" cy="123.214" rx="4.66425" ry="8.74049" fill="var(--fill-0, #FDB797)"/>
</g>
<defs>
<linearGradient id="paint0_linear_8663_2149" x1="230.995" y1="231" x2="230.995" y2="0.0101207" gradientUnits="userSpaceOnUse">
<stop stop-color="#808080" stop-opacity="0.25"/>
<stop offset="0.54" stop-color="#808080" stop-opacity="0.12"/>
<stop offset="1" stop-color="#808080" stop-opacity="0.1"/>
</linearGradient>
</defs>
</svg>
