<svg preserveAspectRatio="none" width="100%" height="100%" overflow="visible" style="display: block;" viewBox="0 0 73 73" fill="none" xmlns="http://www.w3.org/2000/svg">
<g id="Avatars">
<path id="Vector" d="M36.046 72.092C55.9536 72.092 72.092 55.9536 72.092 36.046C72.092 16.1383 55.9536 0 36.046 0C16.1383 0 0 16.1383 0 36.046C0 55.9536 16.1383 72.092 36.046 72.092Z" fill="var(--fill-0, #E6F9FF)"/>
<path id="Vector_2" d="M60.479 62.5397C53.8312 57.0779 45.3217 53.799 36.0464 53.799C26.7702 53.799 18.2599 57.0785 11.6118 62.5413C11.6118 62.5413 20.3383 72.092 36.0464 72.092C51.7544 72.092 60.479 62.5397 60.479 62.5397Z" fill="var(--fill-0, #061E4F)"/>
<path id="Shape" d="M59.7915 24.4156C47.2472 24.4156 37.0781 34.5847 37.0781 47.1289C37.0781 34.5847 26.909 24.4156 14.3647 24.4156" stroke="var(--stroke-0, #76A7FF)" stroke-width="8.96317" stroke-miterlimit="10"/>
</g>
</svg>
