<svg preserveAspectRatio="none" width="100%" height="100%" overflow="visible" style="display: block;" viewBox="0 0 231 231" fill="none" xmlns="http://www.w3.org/2000/svg">
<g id="Group 41511">
<g id="Group" opacity="0.5">
<circle id="Oval" cx="115.5" cy="115.5" r="115.5" fill="url(#paint0_linear_8663_2099)"/>
</g>
<circle id="Oval_2" cx="115.501" cy="114.872" r="113.058" fill="var(--fill-0, #F5F5F5)"/>
<path id="Path" d="M115.82 228.27C137.913 228.306 159.528 221.838 177.97 209.672C173.804 186.909 157.948 185.604 157.948 185.604H70.5229C70.5229 185.604 55.5733 186.83 50.8892 207.779C69.8978 221.15 92.5798 228.308 115.82 228.27Z" fill="var(--fill-0, #00829A)"/>
<path id="Path_2" opacity="0.1" d="M97.0117 157.837H131.984V185.813C131.984 195.467 124.157 203.294 114.503 203.294V203.294C109.865 203.296 105.416 201.456 102.135 198.177C98.8548 194.899 97.0117 190.451 97.0117 185.813V157.837Z" fill="var(--fill-0, black)"/>
<path id="Path_3" d="M100.35 156.542H128.645C130.489 156.542 131.984 158.037 131.984 159.88V184.517C131.984 194.172 124.157 201.998 114.503 201.998V201.998C109.865 202.001 105.416 200.16 102.135 196.882C98.8548 193.603 97.0117 189.155 97.0117 184.517V159.88C97.0117 158.037 98.5065 156.542 100.35 156.542V156.542Z" fill="var(--fill-0, #FDB797)"/>
<path id="Path_4" opacity="0.1" d="M97.0806 171.043C108.351 175.255 120.758 175.29 132.052 171.142V166.847H97.0806V171.043Z" fill="var(--fill-0, black)"/>
<circle id="Oval_3" cx="114.624" cy="123.263" r="50.1208" fill="var(--fill-0, #FDB797)"/>
<ellipse id="Oval_4" cx="65.5383" cy="121.121" rx="4.66425" ry="8.74049" fill="var(--fill-0, #FDB797)"/>
<ellipse id="Oval_5" cx="163.447" cy="121.121" rx="4.66425" ry="8.74049" fill="var(--fill-0, #FDB797)"/>
<rect id="Rectangle" x="84.0845" y="123.503" width="21.4376" height="10.7238" rx="4.35" stroke="var(--stroke-0, #333333)" stroke-width="2"/>
<rect id="Rectangle_2" x="145.169" y="134.217" width="21.4376" height="10.7238" rx="4.35" transform="rotate(180 145.169 134.217)" stroke="var(--stroke-0, #333333)" stroke-width="2"/>
<path id="Path_5" d="M104.706 124.539C104.706 124.539 111.503 120.852 124.14 124.539" stroke="var(--stroke-0, #333333)" stroke-width="2"/>
<path id="Path_6" d="M149.274 86.9369L161.572 115.51C161.572 115.51 176.612 96.5544 149.274 86.9369Z" fill="var(--fill-0, #858585)"/>
<path id="Path_7" d="M145.169 128.864L163.527 112.47" stroke="var(--stroke-0, #333333)" stroke-width="2" stroke-linecap="round" stroke-linejoin="round"/>
<path id="Path_8" d="M79.9873 86.9369L67.6888 115.51C67.6888 115.51 52.6496 96.5544 79.9873 86.9369Z" fill="var(--fill-0, #858585)"/>
<path id="Path_9" d="M84.0862 128.864L65.479 112.47" stroke="var(--stroke-0, #333333)" stroke-width="2" stroke-linecap="round" stroke-linejoin="round"/>
</g>
<defs>
<linearGradient id="paint0_linear_8663_2099" x1="230.995" y1="231" x2="230.995" y2="0.0100291" gradientUnits="userSpaceOnUse">
<stop stop-color="#808080" stop-opacity="0.25"/>
<stop offset="0.54" stop-color="#808080" stop-opacity="0.12"/>
<stop offset="1" stop-color="#808080" stop-opacity="0.1"/>
</linearGradient>
</defs>
</svg>
