<svg preserveAspectRatio="none" width="100%" height="100%" overflow="visible" style="display: block;" viewBox="0 0 73 73" fill="none" xmlns="http://www.w3.org/2000/svg">
<g id="Avatars">
<path id="Vector" d="M36.046 72.092C55.9537 72.092 72.092 55.9536 72.092 36.046C72.092 16.1383 55.9537 0 36.046 0C16.1384 0 0 16.1383 0 36.046C0 55.9536 16.1384 72.092 36.046 72.092Z" fill="var(--fill-0, #EAD7FF)"/>
<path id="Vector_2" d="M47.4026 42.4586C34.8583 42.4586 24.6892 32.2894 24.6892 19.7452" stroke="var(--stroke-0, #AF61F2)" stroke-width="8.96317" stroke-miterlimit="10"/>
<path id="Vector_3" d="M60.48 62.5395C53.8322 57.0777 45.3226 53.7988 36.0473 53.7988C26.7711 53.7988 18.2609 57.0783 11.6128 62.5411C11.6128 62.5411 20.3393 72.0919 36.0473 72.0919C51.7554 72.0919 60.48 62.5395 60.48 62.5395Z" fill="var(--fill-0, #53288C)"/>
</g>
</svg>
