<svg preserveAspectRatio="none" width="100%" height="100%" overflow="visible" style="display: block;" viewBox="0 0 40 40" fill="none" xmlns="http://www.w3.org/2000/svg">
<g id="Vector">
<path d="M0 4C0 1.79086 1.79086 0 4 0H36C38.2091 0 40 1.79086 40 4V36C40 38.2091 38.2091 40 36 40H4C1.79086 40 0 38.2091 0 36V4Z" fill="#D2D3D9"/>
<path fill-rule="evenodd" clip-rule="evenodd" d="M4 0C1.79086 0 0 1.79086 0 4V34.8276L10.4258 22.0345C10.7788 21.5759 11.4655 21.5615 11.8374 22.0049L17 28.1604L28.5073 13.35C28.8711 12.8818 29.5793 12.8836 29.9406 13.3538L40 24.9447V4C40 1.79086 38.2091 0 36 0H4ZM10 17C12.7614 17 15 14.7614 15 12C15 9.23858 12.7614 7 10 7C7.23858 7 5 9.23858 5 12C5 14.7614 7.23858 17 10 17Z" fill="var(--fill-0, #EAEAED)"/>
</g>
</svg>
