<svg preserveAspectRatio="none" width="100%" height="100%" overflow="visible" style="display: block;" viewBox="0 0 24 24" fill="none" xmlns="http://www.w3.org/2000/svg">
<g id="Frame" clip-path="url(#clip0_8641_20228)">
<path id="Vector" d="M9.07422 16.25L11.9992 14.475L14.9242 16.25L14.1492 12.925L16.7492 10.675L13.3242 10.4L11.9992 7.25001L10.6742 10.4L7.24922 10.675L9.84922 12.925L9.07422 16.25ZM11.9992 23.3L8.64922 20H3.99922V15.35L0.699219 12L3.99922 8.65001V4.00001H8.64922L11.9992 0.700012L15.3492 4.00001H19.9992V8.65001L23.2992 12L19.9992 15.35V20H15.3492L11.9992 23.3ZM11.9992 20.5L14.4992 18H17.9992V14.5L20.4992 12L17.9992 9.50001V6.00001H14.4992L11.9992 3.50001L9.49922 6.00001H5.99922V9.50001L3.49922 12L5.99922 14.5V18H9.49922L11.9992 20.5Z" fill="var(--fill-0, #6750A3)"/>
</g>
<defs>
<clipPath id="clip0_8641_20228">
<rect width="24" height="24" fill="white"/>
</clipPath>
</defs>
</svg>
