<svg preserveAspectRatio="none" width="100%" height="100%" overflow="visible" style="display: block;" viewBox="0 0 24 24" fill="none" xmlns="http://www.w3.org/2000/svg">
<g id="auto_stories_24dp_FILL0_wght400_GRAD0_opsz20 1">
<path id="Vector" d="M12 20.4C11.2 19.8667 10.3442 19.4333 9.4325 19.1C8.52083 18.7667 7.57667 18.6 6.6 18.6C5.96667 18.6 5.33333 18.6625 4.7 18.7875C4.06667 18.9125 3.45833 19.1 2.875 19.35C2.475 19.5167 2.09583 19.4872 1.7375 19.2617C1.37917 19.0362 1.2 18.7073 1.2 18.275V5.7C1.2 5.46667 1.2625 5.25 1.3875 5.05C1.5125 4.85 1.68333 4.7 1.9 4.6C2.628 4.26667 3.38758 4.01667 4.17875 3.85C4.97008 3.68333 5.77717 3.6 6.6 3.6C7.55517 3.6 8.48983 3.7125 9.404 3.9375C10.318 4.1625 11.1833 4.5 12 4.95V18.3C12.85 17.85 13.725 17.4875 14.625 17.2125C15.525 16.9375 16.45 16.8 17.4 16.8C18.0228 16.8 18.6328 16.8542 19.2298 16.9625C19.8266 17.0708 20.4167 17.2167 21 17.4V4.2C21.1833 4.26667 21.3678 4.32892 21.5533 4.38675C21.7388 4.44475 21.921 4.51583 22.1 4.6C22.3167 4.71667 22.4875 4.87083 22.6125 5.0625C22.7375 5.25417 22.8 5.46667 22.8 5.7V18.275C22.8 18.6917 22.6208 19.0167 22.2625 19.25C21.9042 19.4833 21.525 19.5167 21.125 19.35C20.525 19.1167 19.9125 18.9333 19.2875 18.8C18.6625 18.6667 18.0333 18.6 17.4 18.6C16.4233 18.6 15.4792 18.7667 14.5675 19.1C13.6558 19.4333 12.8 19.8667 12 20.4ZM13.8 15.6V6L19.2 1.2V10.8L13.8 15.6ZM10.2 17.3V6.275C9.63333 5.95833 9.0375 5.73333 8.4125 5.6C7.7875 5.46667 7.15 5.4 6.5 5.4C5.9 5.4 5.3055 5.46533 4.7165 5.596C4.1275 5.72667 3.55533 5.92267 3 6.184V17.3C3.56667 17.1167 4.14583 16.9875 4.7375 16.9125C5.32917 16.8375 5.91667 16.8 6.5 16.8C7.14 16.8 7.76667 16.8375 8.38 16.9125C8.99333 16.9875 9.6 17.1167 10.2 17.3Z" fill="var(--fill-0, #1041A2)"/>
</g>
</svg>
