<svg preserveAspectRatio="none" width="100%" height="100%" overflow="visible" style="display: block;" viewBox="0 0 231 231" fill="none" xmlns="http://www.w3.org/2000/svg">
<g id="Group 41512">
<g id="Group" opacity="0.5">
<circle id="Oval" cx="115.5" cy="115.5" r="115.5" fill="url(#paint0_linear_8663_2134)"/>
</g>
<circle id="Oval_2" cx="115.73" cy="114.762" r="113.058" fill="var(--fill-0, #F5F5F5)"/>
<path id="Path" d="M177.93 125.903C177.93 163.516 150.911 182.024 115.819 182.024C80.7278 182.024 50.8785 163.516 50.8785 125.903C50.8785 88.2905 79.3225 57.8034 114.404 57.8034C149.486 57.8034 177.93 88.2606 177.93 125.903Z" fill="var(--fill-0, #333333)"/>
<path id="Path_2" d="M115.819 228.27C137.915 228.308 159.534 221.84 177.979 209.673C173.813 186.909 157.956 185.604 157.956 185.604H70.5315C70.5315 185.604 55.582 186.83 50.8978 207.779C69.9037 221.148 92.5819 228.306 115.819 228.27V228.27Z" fill="var(--fill-0, #00829A)"/>
<path id="Path_3" opacity="0.1" d="M97.0229 157.806H131.995V185.782C132.003 190.43 130.159 194.89 126.871 198.176C123.584 201.462 119.122 203.303 114.474 203.293V203.293C109.838 203.293 105.391 201.451 102.113 198.173C98.8348 194.894 96.993 190.448 96.993 185.812V157.806H97.0229Z" fill="var(--fill-0, black)"/>
<path id="Path_4" d="M100.352 156.543H128.646C130.49 156.543 131.985 158.038 131.985 159.882V184.518C131.985 189.16 130.139 193.611 126.854 196.89C123.569 200.169 119.115 202.007 114.474 201.999V201.999C109.838 201.999 105.391 200.158 102.113 196.879C98.8348 193.601 96.993 189.155 96.993 184.518V159.872C96.993 158.986 97.3448 158.137 97.9709 157.511C98.5971 156.885 99.4463 156.533 100.332 156.533L100.352 156.543Z" fill="var(--fill-0, #FDA57D)"/>
<path id="Path_5" opacity="0.1" d="M97.0925 171.043C108.363 175.256 120.77 175.291 132.064 171.143V166.848H97.0925V171.043Z" fill="var(--fill-0, black)"/>
<circle id="Oval_3" cx="114.634" cy="123.255" r="50.1208" fill="var(--fill-0, #FDA57D)"/>
<path id="Path_6" opacity="0.1" d="M56.8684 126.533C56.8684 126.533 88.083 122.745 111.683 92.4876C111.683 92.4876 142.898 126.852 164.645 123.064C164.645 123.064 177.252 109.819 164.645 96.5838C152.037 83.3485 142.26 66.6349 125.556 68.8375C108.853 71.04 88.3521 71.9868 79.5319 79.8702C70.7117 87.7536 56.8684 126.533 56.8684 126.533Z" fill="var(--fill-0, black)"/>
<path id="Path_7" d="M56.8684 125.906C56.8684 125.906 88.083 122.119 111.683 91.8613C111.683 91.8613 142.898 126.225 164.645 122.438C164.645 122.438 177.252 109.193 164.645 95.9575C152.037 82.7222 142.26 66.0086 125.556 68.2112C108.853 70.4137 88.392 71.3207 79.5718 79.2938C70.7516 87.2668 56.8684 125.906 56.8684 125.906Z" fill="var(--fill-0, #333333)"/>
<ellipse id="Oval_4" cx="64.492" cy="123.213" rx="4.66425" ry="8.74049" fill="var(--fill-0, #FDA57D)"/>
<ellipse id="Oval_5" cx="164.744" cy="123.213" rx="4.66425" ry="8.74049" fill="var(--fill-0, #FDA57D)"/>
</g>
<defs>
<linearGradient id="paint0_linear_8663_2134" x1="230.995" y1="231" x2="230.995" y2="0.0100596" gradientUnits="userSpaceOnUse">
<stop stop-color="#808080" stop-opacity="0.25"/>
<stop offset="0.54" stop-color="#808080" stop-opacity="0.12"/>
<stop offset="1" stop-color="#808080" stop-opacity="0.1"/>
</linearGradient>
</defs>
</svg>
