<svg preserveAspectRatio="none" width="100%" height="100%" overflow="visible" style="display: block;" viewBox="0 0 73 73" fill="none" xmlns="http://www.w3.org/2000/svg">
<g id="Avatars">
<path id="Vector" d="M36.046 72.092C55.9536 72.092 72.092 55.9536 72.092 36.046C72.092 16.1383 55.9536 0 36.046 0C16.1383 0 0 16.1383 0 36.046C0 55.9536 16.1383 72.092 36.046 72.092Z" fill="var(--fill-0, #FFF3CB)"/>
<path id="Vector_2" d="M60.4797 62.5395C53.8319 57.0777 45.3224 53.7989 36.0471 53.7989C26.7709 53.7989 18.2606 57.0783 11.6125 62.5411C11.6125 62.5411 20.339 72.0919 36.0471 72.0919C51.7552 72.0919 60.4797 62.5395 60.4797 62.5395Z" fill="var(--fill-0, #864A0F)"/>
<path id="Vector_3" d="M11.1521 37.8101H23.4321C23.4321 32.6857 27.5862 28.5316 32.7106 28.5316H41.0086C46.133 28.5316 50.2871 32.6857 50.2871 37.8101H60.9397" stroke="var(--stroke-0, #FFC814)" stroke-width="8.96317" stroke-miterlimit="10"/>
</g>
</svg>
