<svg preserveAspectRatio="none" width="100%" height="100%" overflow="visible" style="display: block;" viewBox="0 0 73 73" fill="none" xmlns="http://www.w3.org/2000/svg">
<g id="Avatars">
<path id="Vector" d="M36.046 72.092C55.9536 72.092 72.092 55.9536 72.092 36.046C72.092 16.1383 55.9536 0 36.046 0C16.1383 0 0 16.1383 0 36.046C0 55.9536 16.1383 72.092 36.046 72.092Z" fill="var(--fill-0, #E6F9FF)"/>
<path id="Shape" d="M24.6892 42.4586C37.2335 42.4586 47.4026 32.2895 47.4026 19.7452" stroke="var(--stroke-0, #76A7FF)" stroke-width="8.96317" stroke-miterlimit="10"/>
<path id="Vector_2" d="M11.6118 62.5395C18.2596 57.0777 26.7691 53.7989 36.0444 53.7989C45.3207 53.7989 53.8309 57.0783 60.479 62.5411C60.479 62.5411 51.7525 72.0919 36.0444 72.0919C20.3364 72.0919 11.6118 62.5395 11.6118 62.5395Z" fill="var(--fill-0, #061E4F)"/>
</g>
</svg>
