<svg preserveAspectRatio="none" width="100%" height="100%" overflow="visible" style="display: block;" viewBox="0 0 73 73" fill="none" xmlns="http://www.w3.org/2000/svg">
<g id="Avatars">
<path id="Vector" d="M36.046 72.092C55.9537 72.092 72.092 55.9536 72.092 36.046C72.092 16.1383 55.9537 0 36.046 0C16.1384 0 0 16.1383 0 36.046C0 55.9536 16.1384 72.092 36.046 72.092Z" fill="var(--fill-0, #EEF7D8)"/>
<path id="Vector_2" d="M60.4797 62.5395C53.8319 57.0777 45.3224 53.7988 36.0471 53.7988C26.7709 53.7988 18.2606 57.0783 11.6125 62.5411C11.6125 62.5411 20.339 72.0919 36.0471 72.0919C51.7552 72.0919 60.4797 62.5395 60.4797 62.5395Z" fill="var(--fill-0, #156714)"/>
<path id="Vector_3" d="M27.2188 39.4531C31.7221 43.9564 39.0233 43.9564 43.5266 39.4531C48.0299 34.9498 48.0299 27.6485 43.5266 23.1452C39.0233 18.6419 31.7221 18.642 27.2188 23.1452" stroke="var(--stroke-0, #A1D12C)" stroke-width="7.43968" stroke-miterlimit="10"/>
</g>
</svg>
