<svg preserveAspectRatio="none" width="100%" height="100%" overflow="visible" style="display: block;" viewBox="0 0 23 22" fill="none" xmlns="http://www.w3.org/2000/svg">
<path id="Vector" d="M20.5 10L19.875 8.625L18.5 8L19.875 7.375L20.5 6L21.125 7.375L22.5 8L21.125 8.625L20.5 10ZM17.5 6L16.55 3.95L14.5 3L16.55 2.05L17.5 0L18.45 2.05L20.5 3L18.45 3.95L17.5 6ZM7.5 22C6.95 22 6.47933 21.8043 6.088 21.413C5.696 21.021 5.5 20.55 5.5 20H9.5C9.5 20.55 9.30433 21.021 8.913 21.413C8.521 21.8043 8.05 22 7.5 22ZM3.5 19V17H11.5V19H3.5ZM3.75 16C2.6 15.3167 1.68767 14.4 1.013 13.25C0.337667 12.1 0 10.85 0 9.5C0 7.41667 0.729333 5.646 2.188 4.188C3.646 2.72933 5.41667 2 7.5 2C9.58333 2 11.354 2.72933 12.812 4.188C14.2707 5.646 15 7.41667 15 9.5C15 10.85 14.6627 12.1 13.988 13.25C13.3127 14.4 12.4 15.3167 11.25 16H3.75ZM4.35 14H10.65C11.4 13.4667 11.979 12.8083 12.387 12.025C12.7957 11.2417 13 10.4 13 9.5C13 7.96667 12.4667 6.66667 11.4 5.6C10.3333 4.53333 9.03333 4 7.5 4C5.96667 4 4.66667 4.53333 3.6 5.6C2.53333 6.66667 2 7.96667 2 9.5C2 10.4 2.20433 11.2417 2.613 12.025C3.021 12.8083 3.6 13.4667 4.35 14Z" fill="var(--fill-0, #202333)"/>
</svg>
