<svg preserveAspectRatio="none" width="100%" height="100%" overflow="visible" style="display: block;" viewBox="0 0 231 231" fill="none" xmlns="http://www.w3.org/2000/svg">
<g id="Group 41507">
<g id="Group" opacity="0.5">
<circle id="Oval" cx="115.5" cy="115.5" r="115.5" fill="url(#paint0_linear_8663_2180)"/>
</g>
<circle id="Oval_2" cx="115.5" cy="114.872" r="113.058" fill="var(--fill-0, #F5F5F5)"/>
<path id="Path" d="M115.819 228.249C137.912 228.285 159.527 221.817 177.969 209.652C173.803 186.889 157.946 185.583 157.946 185.583H70.5315C70.5315 185.583 55.582 186.809 50.8978 207.758C69.9037 221.127 92.5819 228.285 115.819 228.249V228.249Z" fill="var(--fill-0, #00829A)"/>
<circle id="Oval_3" cx="114.632" cy="112.38" r="50.1208" fill="var(--fill-0, #333333)"/>
<path id="Path_2" opacity="0.1" d="M97.0227 157.836H131.995V185.811C131.995 195.466 124.168 203.292 114.514 203.292V203.292C104.859 203.292 97.0327 195.466 97.0327 185.811V157.836H97.0227Z" fill="var(--fill-0, black)"/>
<path id="Path_3" d="M100.362 156.542H128.656C130.5 156.542 131.995 158.037 131.995 159.881V184.517C131.995 194.172 124.169 201.998 114.514 201.998V201.998C104.86 201.998 97.0331 194.172 97.0331 184.517V159.881C97.0331 158.04 98.5218 156.547 100.362 156.542Z" fill="var(--fill-0, #BE7C5E)"/>
<path id="Path_4" opacity="0.1" d="M97.0925 171.043C108.363 175.256 120.77 175.291 132.064 171.143V166.848H97.0925V171.043Z" fill="var(--fill-0, black)"/>
<circle id="Oval_4" cx="114.632" cy="123.264" r="50.1208" fill="var(--fill-0, #BE7C5E)"/>
<path id="Path_5" d="M84.266 102.592C84.854 100.43 85.5915 98.0478 87.535 96.9216C89.0698 96.0246 90.9733 96.1641 92.7474 96.2538C106.601 97.0113 120.334 93.852 133.809 90.5531C141.513 88.6695 149.755 86.3772 154.738 80.1682C159.721 73.9591 153.223 54.445 145.639 52.1428C140.656 50.6179 134.875 53.4583 130.151 51.2259C128.048 50.2292 126.503 48.3655 124.689 46.9105C120.972 43.9205 116.198 42.7146 111.574 41.5785C106.172 40.243 100.332 38.9374 95.1991 41.0801C91.2125 42.7346 88.3024 46.2327 84.5251 48.3057C77.3394 52.2923 68.579 50.4385 60.3468 50.4186C57.5661 50.4186 54.2474 50.9767 53.1411 53.5281C52.3936 55.2623 52.9916 57.2356 53.0713 59.1192C53.3105 65.099 48.3772 69.7533 44.2411 74.0688C40.1051 78.3842 36.1983 84.5434 38.8095 89.9053C39.8061 91.9484 41.63 93.4932 42.6665 95.5163C44.4504 99.0245 43.5535 103.26 44.2013 107.137C44.8499 110.079 45.9492 112.903 47.4603 115.509C50.5299 121.489 65.9478 153.68 73.0339 145.498C76.4623 141.511 77.0205 129.99 78.4058 124.807C80.3193 117.359 82.2727 109.954 84.266 102.592Z" fill="var(--fill-0, #333333)"/>
<ellipse id="Oval_5" cx="78.9726" cy="121.441" rx="4.66425" ry="8.74049" fill="var(--fill-0, #BE7C5E)"/>
</g>
<defs>
<linearGradient id="paint0_linear_8663_2180" x1="230.995" y1="231" x2="230.995" y2="0.0100139" gradientUnits="userSpaceOnUse">
<stop stop-color="#808080" stop-opacity="0.25"/>
<stop offset="0.54" stop-color="#808080" stop-opacity="0.12"/>
<stop offset="1" stop-color="#808080" stop-opacity="0.1"/>
</linearGradient>
</defs>
</svg>
