<svg preserveAspectRatio="none" width="100%" height="100%" overflow="visible" style="display: block;" viewBox="0 0 231 231" fill="none" xmlns="http://www.w3.org/2000/svg">
<g id="Group 41509">
<g id="Group" opacity="0.5">
<circle id="Oval" cx="115.5" cy="115.5" r="115.5" fill="url(#paint0_linear_8663_2118)"/>
</g>
<circle id="Oval_2" cx="115.5" cy="114.872" r="113.058" fill="var(--fill-0, #F5F5F5)"/>
<path id="Path" d="M71.3981 115.88C71.3981 115.88 58.5813 179.027 51.585 175.529C51.585 175.529 119.057 233.812 178.636 175.529C178.636 175.529 168.141 131.029 152.993 115.88H71.3981Z" fill="var(--fill-0, #333333)"/>
<path id="Path_2" d="M115.818 228.27C137.911 228.306 159.526 221.838 177.968 209.673C173.802 186.909 157.946 185.604 157.946 185.604H70.5211C70.5211 185.604 55.5716 186.83 50.8874 207.779C69.8961 221.15 92.5781 228.308 115.818 228.27Z" fill="var(--fill-0, #00829A)"/>
<circle id="Oval_3" cx="114.622" cy="112.38" r="50.1208" fill="var(--fill-0, #333333)"/>
<path id="Path_3" opacity="0.1" d="M97.0123 157.836H131.984V185.811C131.984 195.454 124.176 203.276 114.533 203.292V203.292C104.879 203.292 97.0522 195.466 97.0522 185.811V157.836H97.0123Z" fill="var(--fill-0, black)"/>
<path id="Path_4" d="M100.351 156.542H128.646C130.49 156.542 131.984 158.037 131.984 159.881V184.517C131.984 194.16 124.176 201.982 114.533 201.998V201.998C104.879 201.998 97.0524 194.172 97.0524 184.517V159.871C97.0577 158.046 98.5268 156.564 100.351 156.542Z" fill="var(--fill-0, #BE7C5E)"/>
<path id="Path_5" opacity="0.1" d="M97.0821 171.043C108.353 175.256 120.76 175.291 132.054 171.143V166.848H97.0821V171.043Z" fill="var(--fill-0, black)"/>
<circle id="Oval_4" cx="114.622" cy="123.255" r="50.1208" fill="var(--fill-0, #BE7C5E)"/>
<path id="Path_6" d="M66.7141 104.22H162.291C162.291 104.22 154.129 65.6298 118.001 68.0915C81.8729 70.5532 66.7141 104.22 66.7141 104.22Z" fill="var(--fill-0, #333333)"/>
<ellipse id="Oval_5" cx="65.5383" cy="121.121" rx="4.66425" ry="8.74049" fill="var(--fill-0, #BE7C5E)"/>
<ellipse id="Oval_6" cx="163.449" cy="121.121" rx="4.66425" ry="8.74049" fill="var(--fill-0, #BE7C5E)"/>
<path id="Path_7" opacity="0.1" d="M66.7141 105.514H162.291C162.291 105.514 154.129 66.924 118.001 69.3856C81.8729 71.8473 66.7141 105.514 66.7141 105.514Z" fill="var(--fill-0, black)"/>
</g>
<defs>
<linearGradient id="paint0_linear_8663_2118" x1="231" y1="231" x2="231" y2="-7.62939e-06" gradientUnits="userSpaceOnUse">
<stop stop-color="#808080" stop-opacity="0.25"/>
<stop offset="0.54" stop-color="#808080" stop-opacity="0.12"/>
<stop offset="1" stop-color="#808080" stop-opacity="0.1"/>
</linearGradient>
</defs>
</svg>
