<svg preserveAspectRatio="none" width="100%" height="100%" overflow="visible" style="display: block;" viewBox="0 0 231 231" fill="none" xmlns="http://www.w3.org/2000/svg">
<g id="Group 41510">
<g id="Group" opacity="0.5">
<circle id="Oval" cx="115.5" cy="115.5" r="115.5" fill="url(#paint0_linear_8663_2080)"/>
</g>
<ellipse id="Oval_2" cx="115.721" cy="114.751" rx="113.058" ry="113.058" fill="var(--fill-0, #F5F5F5)"/>
<path id="Path" d="M115.82 228.269C137.913 228.305 159.528 221.837 177.97 209.671C173.794 186.898 157.947 185.593 157.947 185.593H70.5326C70.5326 185.593 55.5831 186.819 50.8989 207.768C69.9036 221.14 92.5819 228.302 115.82 228.269Z" fill="var(--fill-0, #00829A)"/>
<circle id="Oval_3" cx="114.635" cy="112.37" r="54.5757" fill="var(--fill-0, #72351C)"/>
<path id="Path_2" opacity="0.1" d="M97.0117 157.827H131.984V185.803C131.992 190.444 130.153 194.898 126.874 198.183C123.595 201.468 119.144 203.314 114.503 203.314V203.314C104.848 203.314 97.0217 195.487 97.0217 185.833V157.827H97.0117Z" fill="var(--fill-0, black)"/>
<path id="Path_3" d="M100.326 156.531H128.62C130.464 156.531 131.959 158.026 131.959 159.869V184.506C131.959 194.161 124.133 201.987 114.478 201.987V201.987C104.824 201.987 96.9971 194.161 96.9971 184.506V159.869C96.9971 158.026 98.4919 156.531 100.336 156.531H100.326Z" fill="var(--fill-0, #FDA57D)"/>
<path id="Path_4" opacity="0.1" d="M97.0557 171.034C108.326 175.246 120.733 175.281 132.028 171.133V166.838H97.0557V171.034Z" fill="var(--fill-0, black)"/>
<circle id="Oval_4" cx="114.633" cy="123.253" r="50.1208" fill="var(--fill-0, #FDA57D)"/>
<path id="Path_5" opacity="0.1" d="M78.9355 77.6686C78.9355 77.6686 100.054 120.524 159.663 95.6081L145.79 73.8515L121.203 65.0214L78.9355 77.6686Z" fill="var(--fill-0, black)"/>
<path id="Path_6" d="M78.9355 77.0392C78.9355 77.0392 100.054 119.894 159.663 94.9786L145.79 73.2221L121.203 64.3919L78.9355 77.0392Z" fill="var(--fill-0, #72351C)"/>
<path id="Path_7" d="M78.7453 74.139C80.1691 69.7308 82.6299 65.7285 85.9211 62.4684C95.7778 52.7214 111.943 50.6683 120.235 39.5458C121.146 41.1377 121.341 43.0408 120.771 44.7841C120.202 46.5275 118.921 47.9483 117.245 48.6949C125.218 48.6451 134.397 47.9475 138.882 41.4095C141.148 46.6829 140.174 52.7894 136.381 57.0966C143.417 57.4155 150.932 62.1894 151.39 69.2256C151.689 73.9098 148.759 78.3448 144.902 81.0357C141.045 83.7267 136.401 84.9326 131.816 85.9292C118.441 88.9191 70.0148 101.287 78.7453 74.139Z" fill="var(--fill-0, #72351C)"/>
<path id="Shape" fill-rule="evenodd" clip-rule="evenodd" d="M163.428 123.691H164.754L164.764 123.711C164.697 151.094 142.666 173.354 115.286 173.706C87.9056 174.057 65.3113 152.369 64.542 124.997L67.2728 124.658L94.3812 146.724C94.3812 146.724 112.66 135.063 137.575 146.724L163.428 123.691ZM96.9136 151.118C96.9136 153.539 104.814 155.532 114.559 155.533C114.557 155.533 114.556 155.533 114.554 155.533H114.564C114.562 155.533 114.561 155.533 114.559 155.533C124.314 155.532 132.214 153.539 132.214 151.118C132.214 148.696 124.311 146.703 114.564 146.703C104.817 146.703 96.9136 148.696 96.9136 151.118Z" fill="var(--fill-0, #72351C)"/>
<ellipse id="Oval_5" cx="64.4934" cy="123.205" rx="4.66425" ry="8.74049" fill="var(--fill-0, #FDA57D)"/>
<ellipse id="Oval_6" cx="164.747" cy="123.205" rx="4.66425" ry="8.74049" fill="var(--fill-0, #FDA57D)"/>
</g>
<defs>
<linearGradient id="paint0_linear_8663_2080" x1="230.995" y1="230.99" x2="230.995" y2="-3.05176e-05" gradientUnits="userSpaceOnUse">
<stop stop-color="#808080" stop-opacity="0.25"/>
<stop offset="0.54" stop-color="#808080" stop-opacity="0.12"/>
<stop offset="1" stop-color="#808080" stop-opacity="0.1"/>
</linearGradient>
</defs>
</svg>
