<svg preserveAspectRatio="none" width="100%" height="100%" overflow="visible" style="display: block;" viewBox="0 0 104 20" fill="none" xmlns="http://www.w3.org/2000/svg">
<g id="Group 2529">
<mask id="mask0_8641_20158" style="mask-type:alpha" maskUnits="userSpaceOnUse" x="0" y="0" width="104" height="20">
<g id="mask-2">
<path id="Vector" d="M0 0H103.125V20H0V0Z" fill="var(--fill-0, #004099)"/>
</g>
</mask>
<g mask="url(#mask0_8641_20158)">
<path id="Fill-1" fill-rule="evenodd" clip-rule="evenodd" d="M79.7988 4.68815C74.2221 4.68815 73.2968 6.63545 73.28 10.4629V11.1271C73.2968 14.9552 74.2221 16.9022 79.7988 16.9022C83.5609 16.9022 86.3239 16.5832 86.3239 13.1853V12.9992H86.3232C86.3223 12.866 86.2673 12.7384 86.1702 12.6441C86.0731 12.5498 85.9416 12.4963 85.8042 12.4952H84.699C84.4127 12.4952 84.1794 12.7231 84.1794 13.0053V13.0683C84.1794 13.0734 84.181 13.0769 84.181 13.0814V13.23C84.181 15.3962 82.4541 15.4416 79.9464 15.4416C75.902 15.4416 75.5273 14.3997 75.5095 10.795C75.5273 7.19027 75.902 6.14839 79.9464 6.14839C82.4541 6.14839 84.181 6.19409 84.181 8.36063V8.50893C84.181 8.5134 84.1794 8.51692 84.1794 8.52171V8.58531C84.1794 8.86751 84.4127 9.09538 84.699 9.09538H85.8042C86.0883 9.09538 86.3189 8.86975 86.3232 8.59106H86.3239V8.40602C86.3239 5.00775 83.5609 4.68815 79.7988 4.68815V4.68815ZM72.0121 14.3668H70.5684C70.2811 14.3668 70.0495 14.5953 70.0495 14.8772V16.3505C70.0495 16.6318 70.2811 16.8609 70.5684 16.8609H72.0121C72.2987 16.8609 72.531 16.6318 72.531 16.3505V14.8772C72.531 14.5953 72.2987 14.3668 72.0121 14.3668ZM100.913 14.7276V8.80455C100.972 5.47436 99.0455 4.65332 95.0455 4.65332C93.2684 4.65332 90.9875 4.81344 90.2451 6.2497H90.1871V2.12787C90.1871 2.11637 90.1901 2.10486 90.1901 2.09399V0.509436C90.1901 0.228192 89.9578 0 89.6714 0H88.5636C88.2763 0 88.0433 0.228192 88.0433 0.509436V2.09399C88.0433 2.10486 88.0456 2.11637 88.0466 2.12787V14.7343C88.0456 14.7455 88.0433 14.7567 88.0433 14.7676V16.3521C88.0427 16.4867 88.0971 16.616 88.1946 16.7117C88.2922 16.8073 88.4249 16.8616 88.5636 16.8625H89.6714C89.9578 16.8625 90.1901 16.6331 90.1901 16.3521V14.7676C90.1901 14.7567 90.1871 14.7455 90.1871 14.7343V9.78507C90.1871 7.02504 91.2159 6.11259 95.0392 6.11259C97.6747 6.11259 98.7716 6.47853 98.7716 8.66745V14.7481C98.7716 14.7548 98.769 14.7605 98.769 14.7676V16.3521C98.769 16.6331 99.0033 16.8625 99.289 16.8625H100.396C100.684 16.8625 100.916 16.6331 100.916 16.3521V14.7676C100.916 14.7542 100.913 14.741 100.913 14.7276V14.7276ZM18.9381 4.79969H16.2265C15.9395 4.79969 15.7072 5.02852 15.7072 5.31009V6.89401C15.7072 6.92629 15.7105 6.95729 15.7157 6.98797V16.3512C15.7157 17.1569 15.5523 17.7542 14.0922 17.8063H13.9904C13.9637 17.8064 13.9372 17.8116 13.9126 17.8216C13.8879 17.8317 13.8656 17.8463 13.8468 17.8648C13.8281 17.8832 13.8132 17.9051 13.8032 17.9291C13.7932 17.9531 13.7881 17.9788 13.7884 18.0048V19.6826C13.7884 19.7903 13.8751 19.8766 13.9831 19.8802C13.9855 19.8802 13.9884 19.8837 13.9904 19.8837C14.4231 19.962 14.8343 20 15.2722 20C18.6791 20 19.4495 18.4039 19.4495 16.077V6.97582C19.4538 6.94898 19.4571 6.92181 19.4571 6.89401V5.31009C19.4571 5.02852 19.2254 4.79969 18.9381 4.79969V4.79969ZM18.9381 0.175458H16.2265C15.9395 0.175458 15.7072 0.40365 15.7072 0.686173V2.26913C15.7072 2.55165 15.9395 2.78049 16.2265 2.78049H18.9381C19.2254 2.78049 19.4571 2.55165 19.4571 2.26913V0.686173C19.4571 0.40365 19.2254 0.175458 18.9381 0.175458ZM61.9048 9.53419C58.6473 9.41977 58.2317 9.37503 58.2317 8.18869C58.2317 6.61436 59.5946 6.61436 61.5796 6.61436C63.3923 6.61436 64.3643 6.61532 64.5199 7.70962C64.5535 7.9589 64.7687 8.1513 65.0319 8.1513H67.7277C68.0147 8.1513 68.2473 7.92375 68.2473 7.6409V7.58401C68.2473 7.56835 68.2444 7.55397 68.2444 7.53799V7.53448C68.2444 7.53128 68.2424 7.52904 68.2424 7.52585C68.2377 7.49678 68.2318 7.46789 68.2249 7.43924C67.7956 4.69838 64.4316 4.65332 61.5796 4.65332C57.58 4.65332 54.4987 4.72203 54.4987 8.00556C54.4987 11.0628 55.534 11.6557 61.2531 11.7244C65.0155 11.7701 65.1057 12.2945 65.1057 13.3435C65.1057 14.9859 63.8025 14.9402 61.5796 14.9402C59.0549 14.9402 58.3962 14.7657 58.2594 13.4035V13.3991C58.26 13.2646 58.2056 13.1353 58.1082 13.0396C58.0107 12.944 57.8781 12.8897 57.7394 12.8887H55.0302C54.7438 12.8887 54.5112 13.1175 54.5112 13.3991V13.4566C54.5112 13.4921 54.5151 13.5259 54.5217 13.5598C54.7896 16.8993 57.5556 16.9018 61.5796 16.9018C65.5199 16.9018 68.8385 16.5829 68.8385 13.3435C68.8385 9.46548 65.5802 9.67162 61.9048 9.53419V9.53419ZM45.5988 14.712C41.7761 14.712 41.8657 13.2751 41.8657 10.4236C41.8657 7.86941 42.3692 6.84319 45.5988 6.84319C48.1779 6.84319 48.9173 7.41335 48.9173 10.4236C48.9173 13.1383 49.006 14.712 45.5988 14.712ZM46.6954 4.65332C44.7994 4.65332 42.8127 4.92689 42.014 6.38681H41.8657V2.11668C41.8657 2.10965 41.8687 2.10166 41.8687 2.09399V0.509436C41.8687 0.228192 41.6357 0 41.348 0H38.652C38.3656 0 38.1333 0.228192 38.1333 0.509436V0.619058H38.1323V14.4016C38.1323 14.4042 38.1313 14.4064 38.1313 14.4093L38.1323 14.4112V15.8274H38.1333V16.3275C38.1333 16.6094 38.3656 16.8379 38.652 16.8379H41.6364C41.6604 16.8379 41.6706 16.8328 41.6766 16.8248C41.7253 16.8145 41.7694 16.7898 41.8028 16.7539C41.8363 16.7181 41.8574 16.6731 41.8631 16.6251H41.8657L41.8644 16.6174C41.8657 16.6094 41.8697 16.603 41.8697 16.5953L41.8011 15.9073L41.7188 14.9628H41.8367C42.7841 16.5372 44.5032 16.9018 46.6954 16.9018C52.4745 16.9018 52.6517 14.0964 52.6517 10.4236C52.6517 6.91126 52.0286 4.65332 46.6954 4.65332V4.65332ZM28.6357 14.712C25.3158 14.712 25.0506 14.0047 25.0506 10.8113C25.0506 7.57283 25.3158 6.84319 28.6357 6.84319C31.9529 6.84319 32.2215 7.57283 32.2215 10.8113C32.2215 14.0047 31.9529 14.712 28.6357 14.712ZM28.6357 4.65332C22.1466 4.65332 21.3168 6.13624 21.3168 10.7886C21.3168 15.4196 22.1466 16.9018 28.6357 16.9018C35.1235 16.9018 35.9526 15.4196 35.9526 10.7886C35.9526 6.13624 35.1235 4.65332 28.6357 4.65332V4.65332ZM7.93754 8.86112L1.18512 5.02916C-0.68587 3.9681 -2.2168 4.83613 -2.2168 6.95952V14.6225C-2.2168 16.7456 -0.68587 17.6149 1.18512 16.5528L7.93754 12.7212C9.80852 11.6595 9.80852 9.9225 7.93754 8.86112" fill="var(--fill-0, #004099)"/>
</g>
</g>
</svg>
