<svg preserveAspectRatio="none" width="100%" height="100%" overflow="visible" style="display: block;" viewBox="0 0 231 231" fill="none" xmlns="http://www.w3.org/2000/svg">
<g id="Group 41513">
<g id="Group" opacity="0.5">
<circle id="Oval" cx="115.5" cy="115.5" r="115.5" fill="url(#paint0_linear_8663_2165)"/>
</g>
<circle id="Oval_2" cx="115.501" cy="114.872" r="113.058" fill="var(--fill-0, #F5F5F5)"/>
<path id="Path" d="M178.041 125.038C178.041 166.677 150.873 213.031 117.356 213.031C83.839 213.031 56.7007 166.677 56.7007 125.038C56.7007 83.3984 83.8689 62.2498 117.386 62.2498C150.903 62.2498 178.041 83.4083 178.041 125.038Z" fill="var(--fill-0, #FDD835)"/>
<path id="Path_2" d="M115.82 228.279C137.913 228.316 159.528 221.848 177.97 209.682C173.804 186.919 157.947 185.613 157.947 185.613H70.5326C70.5326 185.613 55.5831 186.839 50.8989 207.789C69.9048 221.157 92.583 228.315 115.82 228.279V228.279Z" fill="var(--fill-0, #00829A)"/>
<path id="Path_3" opacity="0.1" d="M97.0215 157.837H131.993V185.813C131.993 195.467 124.167 203.294 114.512 203.294V203.294C104.858 203.294 97.0315 195.467 97.0315 185.813V157.837H97.0215Z" fill="var(--fill-0, black)"/>
<path id="Path_4" d="M100.36 156.541H128.654C130.498 156.541 131.993 158.036 131.993 159.879V184.516C131.993 194.171 124.167 201.997 114.512 201.997V201.997C104.858 201.997 97.0312 194.171 97.0312 184.516V159.879C97.0312 158.039 98.52 156.546 100.36 156.541Z" fill="var(--fill-0, #FDB797)"/>
<path id="Path_5" opacity="0.1" d="M97.0903 171.043C108.361 175.255 120.768 175.29 132.062 171.142V166.847H97.0903V171.043Z" fill="var(--fill-0, black)"/>
<circle id="Oval_3" cx="114.633" cy="123.263" r="50.1208" fill="var(--fill-0, #FDB797)"/>
<ellipse id="Oval_4" cx="65.548" cy="121.121" rx="4.66425" ry="8.74049" fill="var(--fill-0, #FDB797)"/>
<ellipse id="Oval_5" cx="163.457" cy="121.121" rx="4.66425" ry="8.74049" fill="var(--fill-0, #FDB797)"/>
<path id="Path_6" opacity="0.1" d="M70.2212 96.0754C70.2212 96.0754 98.5555 134.854 163.536 121.609C163.536 121.609 170.792 112.779 153.131 85.6706C135.471 58.5621 86.2969 62.9772 70.2212 96.0754Z" fill="var(--fill-0, black)"/>
<path id="Path_7" d="M70.2212 95.4477C70.2212 95.4477 98.5555 134.227 163.536 120.981C163.536 120.981 170.792 112.151 153.131 85.0428C135.471 57.9343 86.2969 62.3494 70.2212 95.4477Z" fill="var(--fill-0, #FDD835)"/>
</g>
<defs>
<linearGradient id="paint0_linear_8663_2165" x1="230.995" y1="231" x2="230.995" y2="0.00985365" gradientUnits="userSpaceOnUse">
<stop stop-color="#808080" stop-opacity="0.25"/>
<stop offset="0.54" stop-color="#808080" stop-opacity="0.12"/>
<stop offset="1" stop-color="#808080" stop-opacity="0.1"/>
</linearGradient>
</defs>
</svg>
