<svg preserveAspectRatio="none" width="100%" height="100%" overflow="visible" style="display: block;" viewBox="0 0 144 144" fill="none" xmlns="http://www.w3.org/2000/svg">
<g id="Component 2">
<rect id="Rectangle 113" width="144" height="144" rx="4" fill="var(--fill-0, #D2D3D9)"/>
<path id="Subtract" d="M140 0C142.209 1.03081e-06 144 1.79086 144 4V89.7998L107.786 48.0732C106.485 46.3812 103.937 46.3745 102.627 48.0596L61.2002 101.377L42.6152 79.2178C41.2764 77.6215 38.804 77.6733 37.5332 79.3242L0 125.379V4C1.03083e-06 1.79086 1.79086 1.61064e-08 4 0H140ZM36 25.2002C26.059 25.2004 18 33.2592 18 43.2002C18.0001 53.1411 26.0591 61.2 36 61.2002C45.9411 61.2002 53.9999 53.1412 54 43.2002C54 33.2591 45.9411 25.2002 36 25.2002Z" fill="var(--fill-0, #EAEAED)"/>
</g>
</svg>
